<svg id="ASETToken_icon" xmlns="http://www.w3.org/2000/svg" xmlns:xlink="http://www.w3.org/1999/xlink" width="40" height="40" viewBox="0 0 40 40">
  <defs>
    <style>
      .cls-1 {
        fill: url(#linear-gradient);
      }

      .cls-2 {
        fill: #fff;
      }
    </style>
    <linearGradient id="linear-gradient" x1="0.886" y1="1" x2="0.118" gradientUnits="objectBoundingBox">
      <stop offset="0" stop-color="#7076a8"/>
      <stop offset="0.502" stop-color="#5ca1c7"/>
      <stop offset="1" stop-color="#82c2ca"/>
    </linearGradient>
  </defs>
  <path id="路径_66" data-name="路径 66" class="cls-1" d="M20,40A20,20,0,1,0,0,20,20,20,0,0,0,20,40Z"/>
  <path id="PARASSET_LOGO" class="cls-2" d="M0,7.292,1.575,8.735v9.286L0,16.578Zm1.575.327A5.711,5.711,0,0,1,4.233,2.406a5.4,5.4,0,0,1,5.927.235l1.123-1.149A7.04,7.04,0,0,0,3.678.872,7.209,7.209,0,0,0,.063,6.221Zm.683,4.855a6.982,6.982,0,0,0,3.927,1.87,7.011,7.011,0,0,0,5.156-1.484l-1.122-1.145a5.139,5.139,0,0,1-4.006.99A5.777,5.777,0,0,1,2.258,9.923ZM10.7,3.083A6.031,6.031,0,0,1,12.467,7.2a5.911,5.911,0,0,1-1.719,4.066l1.11,1.136a7.053,7.053,0,0,0,2.183-5.2,7.171,7.171,0,0,0-2.234-5.252ZM22,7.292,20.425,8.734V18.02L22,16.578Zm-.063-1.071A7.209,7.209,0,0,0,18.323.873a6.919,6.919,0,0,0-6.668.015l1.27,1.152a5.4,5.4,0,0,1,4.842.367,5.711,5.711,0,0,1,2.658,5.213Zm-2.2,3.7a5.777,5.777,0,0,1-3.955,2.783,5.805,5.805,0,0,1-2.863-.329,11.71,11.71,0,0,1-1.272,1.15,7.3,7.3,0,0,0,4.163.818,6.982,6.982,0,0,0,3.927-1.87ZM9.425,2.795a7.361,7.361,0,0,0,0,8.818c.556-.5.681-.6,1.218-1.066A5.794,5.794,0,0,1,9.533,7.2a5.819,5.819,0,0,1,1.11-3.334C10.1,3.393,9.862,3.2,9.425,2.795Z" transform="translate(9 10.98)"/>
</svg>
