<svg xmlns="http://www.w3.org/2000/svg" xmlns:xlink="http://www.w3.org/1999/xlink" width="90" height="90" viewBox="0 0 90 90">
  <defs>
    <style>
      .cls-1 {
        fill: #fff;
        stroke: #eee;
      }

      .cls-2 {
        fill: #196ea6;
      }

      .cls-3 {
        stroke: none;
      }

      .cls-4 {
        fill: none;
      }

      .cls-5 {
        filter: url(#椭圆_3);
      }
    </style>
    <filter id="椭圆_3" x="0" y="0" width="90" height="90" filterUnits="userSpaceOnUse">
      <feOffset input="SourceAlpha"/>
      <feGaussianBlur stdDeviation="5" result="blur"/>
      <feFlood flood-color="#eee"/>
      <feComposite operator="in" in2="blur"/>
      <feComposite in="SourceGraphic"/>
    </filter>
  </defs>
  <g id="切换_icon" transform="translate(9 9)">
    <g class="cls-5" transform="matrix(1, 0, 0, 1, -9, -9)">
      <g id="椭圆_3-2" data-name="椭圆 3" class="cls-1" transform="translate(15 15)">
        <circle class="cls-3" cx="30" cy="30" r="30"/>
        <circle class="cls-4" cx="30" cy="30" r="29.5"/>
      </g>
    </g>
    <g id="兑换_icon" transform="translate(74.333 18.333)">
      <path id="路径_4" data-name="路径 4" class="cls-2" d="M24.667,34.57l-3-3.077V11.872l3,3.077Z" transform="translate(-57 -9.211)"/>
      <path id="路径_5" data-name="路径 5" class="cls-2" d="M21.667,10.708v.637l12,12.308V19.3l-9.44-9.682A1.5,1.5,0,0,0,21.667,10.708Z" transform="translate(-57 -11.5)"/>
      <path id="路径_6" data-name="路径 6" class="cls-2" d="M16.667,15.833l3,3.077V38.532l-3-3.077Z" transform="translate(-61 -5.859)"/>
      <path id="路径_7" data-name="路径 7" class="cls-2" d="M23.667,35.931v-.637l-12-12.308v4.351l9.44,9.682A1.5,1.5,0,0,0,23.667,35.931Z" transform="translate(-65 0.194)"/>
    </g>
  </g>
</svg>
