<svg xmlns="http://www.w3.org/2000/svg" width="40" height="40" viewBox="0 0 40 40">
  <defs>
    <style>
      .cls-1 {
        fill: none;
      }
    </style>
  </defs>
  <g id="挖矿_icon_black" transform="translate(100.001 15)">
    <rect id="矩形_6" data-name="矩形 6" class="cls-1" width="40" height="40" transform="translate(-100.001 -15)"/>
    <path id="路径_8" data-name="路径 8" d="M22.816,10a.846.846,0,0,0-.6.248l-.057.057a.847.847,0,0,0,0,1.2l6.335,6.335a.848.848,0,0,0,1.2,0l.057-.057a.847.847,0,0,0,0-1.2l-6.335-6.335A.846.846,0,0,0,22.816,10Z" transform="translate(-100 -15)"/>
    <path id="路径_9" data-name="路径 9" d="M23.926,14.817l-5.5,5.5,1.256,1.256,5.5-5.5Z" transform="translate(-100 -15)"/>
    <path id="路径_10" data-name="路径 10" d="M11.776,23.2l2.731-2.731-1.256-1.256L10.5,21.968a1.7,1.7,0,0,0-.5,1.2V28.3A1.7,1.7,0,0,0,11.7,30h.08Z" transform="translate(-100 -15)"/>
    <path id="路径_11" data-name="路径 11" d="M21.617,23.517l-5.136-5.136a1.695,1.695,0,0,0-2.4,0l-.057.057L20.3,24.716,16.8,28.223H12.871V30h3.96a1.7,1.7,0,0,0,1.2-.5l3.587-3.587A1.7,1.7,0,0,0,21.617,23.517Z" transform="translate(-100 -15)"/>
  </g>
</svg>
