<svg xmlns="http://www.w3.org/2000/svg" width="40" height="40" viewBox="0 0 40 40">
  <defs>
    <style>
      .cls-1 {
        fill: none;
      }

      .cls-2 {
        fill: #196ea6;
      }
    </style>
  </defs>
  <g id="首页_icon_hover" transform="translate(-0.167 -0.166)">
    <rect id="矩形_8" data-name="矩形 8" class="cls-1" width="40" height="40" transform="translate(0.167 0.166)"/>
    <path id="路径_12" data-name="路径 12" class="cls-2" d="M17.952,10.9l-8.528,8.75a.92.92,0,0,0,0,1.277.864.864,0,0,0,1.244,0l8.528-8.75Z"/>
    <path id="路径_13" data-name="路径 13" class="cls-2" d="M25.961,29.028h-13V20.219L11.2,22.025v7a1.783,1.783,0,0,0,1.759,1.806h13Z"/>
    <path id="路径_14" data-name="路径 14" class="cls-2" d="M30.576,19.645,20.622,9.431a.864.864,0,0,0-1.244,0l-.622.638,8.282,8.5V30.833A1.783,1.783,0,0,0,28.8,29.028V20.374l.533.548a.864.864,0,0,0,1.244,0A.92.92,0,0,0,30.576,19.645Z"/>
  </g>
</svg>
