<svg xmlns="http://www.w3.org/2000/svg" width="48" height="48" viewBox="0 0 48 48">
  <defs>
    <style>
      .cls-1 {
        fill: none;
      }

      .cls-2 {
        fill: #ee144c;
      }
    </style>
  </defs>
  <g id="失败_icon" transform="translate(-311 -63)">
    <rect id="矩形_40" data-name="矩形 40" class="cls-1" width="48" height="48" transform="translate(311 63)"/>
    <path id="减去_9" data-name="减去 9" class="cls-2" d="M-11812-1189a23.856,23.856,0,0,1-9.343-1.886,23.927,23.927,0,0,1-7.629-5.143,23.916,23.916,0,0,1-5.144-7.628A23.861,23.861,0,0,1-11836-1213a23.868,23.868,0,0,1,1.886-9.343,23.92,23.92,0,0,1,5.144-7.629,23.919,23.919,0,0,1,7.629-5.143A23.854,23.854,0,0,1-11812-1237a23.841,23.841,0,0,1,9.341,1.886,23.916,23.916,0,0,1,7.629,5.143,23.927,23.927,0,0,1,5.143,7.629A23.868,23.868,0,0,1-11788-1213a23.861,23.861,0,0,1-1.886,9.341,23.935,23.935,0,0,1-5.143,7.628,23.927,23.927,0,0,1-7.629,5.143A23.85,23.85,0,0,1-11812-1189Zm0-45a20.879,20.879,0,0,0-8.176,1.65,20.927,20.927,0,0,0-6.674,4.5,20.925,20.925,0,0,0-4.5,6.675A20.885,20.885,0,0,0-11833-1213a20.877,20.877,0,0,0,1.65,8.173,20.92,20.92,0,0,0,4.5,6.674,20.926,20.926,0,0,0,6.674,4.5A20.879,20.879,0,0,0-11812-1192a20.866,20.866,0,0,0,8.174-1.65,20.928,20.928,0,0,0,6.674-4.5,20.909,20.909,0,0,0,4.5-6.674A20.877,20.877,0,0,0-11791-1213a20.885,20.885,0,0,0-1.65-8.175,20.911,20.911,0,0,0-4.5-6.675,20.929,20.929,0,0,0-6.674-4.5A20.866,20.866,0,0,0-11812-1234Z" transform="translate(12147 1300)"/>
    <path id="联合_3" data-name="联合 3" class="cls-2" d="M-8948.184-1096.859l-6.2-6.2-6.2,6.2a1.646,1.646,0,0,1-2.324,0,1.648,1.648,0,0,1,0-2.323l6.2-6.2-6.2-6.2a1.645,1.645,0,0,1,0-2.323,1.646,1.646,0,0,1,2.324,0l6.2,6.2,6.2-6.2a1.645,1.645,0,0,1,2.323,0,1.643,1.643,0,0,1,0,2.323l-6.2,6.2,6.2,6.2a1.648,1.648,0,0,1,0,2.323,1.642,1.642,0,0,1-1.163.48A1.636,1.636,0,0,1-8948.184-1096.859Z" transform="translate(9289.379 1192.378)"/>
  </g>
</svg>
