<svg xmlns="http://www.w3.org/2000/svg" width="200" height="210" viewBox="0 0 200 210">
  <defs>
    <style>
      .cls-1 {
        fill: #e5e5e5;
      }
    </style>
  </defs>
  <path id="路径_143" data-name="路径 143" class="cls-1" d="M166.919,18.779a1.926,1.926,0,0,1,0-3.852h3.572a4.776,4.776,0,0,1,2.14-2.055V9.149a1.9,1.9,0,1,1,3.808,0v3.606a4.772,4.772,0,0,1,2.38,2.173h3.332a1.929,1.929,0,0,1,0,3.852h-3.016a4.785,4.785,0,0,1-2.7,2.895v2.881a1.9,1.9,0,1,1-3.808,0v-3a4.791,4.791,0,0,1-2.456-2.777h-3.256ZM45.052,45.743a1.9,1.9,0,1,1-3.808,0v-3a4.8,4.8,0,0,1-2.46-2.777H35.531a1.926,1.926,0,0,1,0-3.852H39.1a4.761,4.761,0,0,1,2.142-2.055V30.335a1.9,1.9,0,1,1,3.808,0v3.606a4.78,4.78,0,0,1,2.376,2.173h3.334a1.926,1.926,0,0,1,0,3.852H47.747a4.8,4.8,0,0,1-2.694,2.895v2.881Zm75.185,154.083c30.943,0,56.023,2.279,56.023,5.085S151.183,210,120.239,210s-56.029-2.279-56.029-5.089,25.084-5.085,56.027-5.085ZM35.531,105.451a1.925,1.925,0,0,1,0,3.85H32.517a4.8,4.8,0,0,1-2.7,2.9v2.881a1.9,1.9,0,1,1-3.808,0v-3a4.787,4.787,0,0,1-2.46-2.781H20.3a1.9,1.9,0,0,1-1.7-.945,1.945,1.945,0,0,1,0-1.961,1.9,1.9,0,0,1,1.7-.945H23.87a4.776,4.776,0,0,1,2.14-2.055V99.671a1.911,1.911,0,0,1,1.9-1.922,1.891,1.891,0,0,1,1.347.562,1.935,1.935,0,0,1,.559,1.361v3.609a4.756,4.756,0,0,1,2.378,2.171ZM90.039,7.7A3.83,3.83,0,0,1,86.23,3.852a3.809,3.809,0,1,1,7.617,0A3.83,3.83,0,0,1,90.039,7.7ZM106.986,107.3a3.853,3.853,0,1,0,3.812,3.85A3.831,3.831,0,0,0,106.986,107.3Zm28.563-26.963a3.852,3.852,0,1,0,3.808,3.852A3.83,3.83,0,0,0,135.549,80.333Zm19.042,19.26a3.852,3.852,0,1,0,3.808,3.852,3.83,3.83,0,0,0-3.808-3.852Zm-47.624,21.185a9.63,9.63,0,0,1,0-19.259,9.366,9.366,0,0,1,3.443.677l15.946-15.57a9.69,9.69,0,0,1-.347-2.442,9.521,9.521,0,1,1,18.016,4.262l6.448,6.342a9.3,9.3,0,0,1,4.1-.975,9.712,9.712,0,1,1-8.27,4.935L140.058,92.6a9.172,9.172,0,0,1-10.553-1.021L114.9,105.838a9.64,9.64,0,0,1-7.931,14.94ZM216.428,93.894a1.927,1.927,0,0,1,0,3.854h-3.016a4.8,4.8,0,0,1-2.7,2.895v2.881a1.931,1.931,0,0,1-.934,1.719,1.886,1.886,0,0,1-1.939,0,1.931,1.931,0,0,1-.934-1.719v-3a4.8,4.8,0,0,1-2.458-2.777h-3.256a1.927,1.927,0,0,1,0-3.854h3.574a4.784,4.784,0,0,1,2.14-2.055V88.114a1.9,1.9,0,1,1,3.807,0V91.68a.641.641,0,0,1,.034.062,4.761,4.761,0,0,1,2.346,2.153h3.334ZM102.3,128.744h64.743a9.388,9.388,0,0,0,5.237-1.6v7.377H96.584a9.518,9.518,0,0,1-8.775-5.886,2.732,2.732,0,0,1-.428.089H83.572a2.892,2.892,0,0,1,0-5.78h3.492v-7.7H83.572a2.889,2.889,0,0,1,0-5.778h3.492V99.831H83.572a2.889,2.889,0,0,1,0-5.778h3.492v-7.7H83.572a2.89,2.89,0,0,1,0-5.78h3.492v-7.7H83.572a2.89,2.89,0,0,1,0-5.78h3.492v-7.7H83.572a2.849,2.849,0,0,1-2.56-1.412,2.918,2.918,0,0,1,0-2.95,2.849,2.849,0,0,1,2.56-1.412l4.056-.006v-.035h5.118V53.6h.029v65.516a9.576,9.576,0,0,0,9.521,9.63Zm82.077,23.713V56.131a11.827,11.827,0,0,1,11.774-11.878,11.638,11.638,0,0,1,6.537,2V42.142a1.053,1.053,0,0,0-1.047-1.055H189.493a.368.368,0,0,0,.01.044h-5.949a.864.864,0,0,0-.223-.044H63.007a1.051,1.051,0,0,0-1.047,1.055V147.415l109.364-.1-.027,7.7v8.294a6.54,6.54,0,1,0,13.08,0V152.458ZM48.981,172.951a9.137,9.137,0,0,0,8.188,5.368H174.816a8.821,8.821,0,0,0,5.195-1.718v-.008h-6.246c-5.261,0-9.106-4.312-9.106-9.63l-.417-9.63a9.69,9.69,0,0,1,.276-2.194l-6.836-.058-108.7.025v17.843ZM202.686,68.5V56.131a6.541,6.541,0,1,0-13.082,0V68.5Zm5.246,5.316H189.606V177.294a7.051,7.051,0,0,1-6.4,6.787h-2.5c-.042,0-.084.015-.131.015H52.254a9.192,9.192,0,0,1-8.676-6.66l.015.06-.267-1.113a10.588,10.588,0,0,1-.24-1.916V155.106l.061-7.673,13.577-.013V42.142A6.307,6.307,0,0,1,63,35.809H201.632a6.3,6.3,0,0,1,6.278,6.333V68.5h.019v5.316Z" transform="translate(-18.333)"/>
</svg>
