<?xml version="1.0" encoding="UTF-8"?>
<svg width="16px" height="10px" viewBox="0 0 16 10" version="1.1" xmlns="http://www.w3.org/2000/svg" xmlns:xlink="http://www.w3.org/1999/xlink">
    <title>arrow_bottom_icon</title>
    <g id="页面-1" stroke="none" stroke-width="1" fill="none" fill-rule="evenodd">
        <g id="arrow_bottom_icon" transform="translate(8.000000, 5.000592) scale(1, -1) translate(-8.000000, -5.000592) translate(-0.000057, 0.000966)" fill="#878787" fill-rule="nonzero">
            <g id="下拉_icon" transform="translate(8.000057, 4.999626) rotate(-90.000000) translate(-8.000057, -4.999626) translate(3.000430, -3.000430)">
                <path d="M4.20762647,3.42764883 C4.43162647,3.17564883 4.73562647,2.94164883 5.02362647,3.01364883 C5.31162647,2.95964883 5.58362647,3.21364883 5.80762647,3.42764883 L12.7356265,11.2616488 C13.0877019,11.677466 13.0877019,12.2868317 12.7356265,12.7026488 C12.5764024,12.8910219 12.3422775,12.999683 12.0956265,12.999683 C11.8489755,12.999683 11.6148505,12.8910219 11.4556265,12.7026488 L5.00762647,5.24664883 L-1.45637353,12.7026488 C-1.61559757,12.8910219 -1.84972255,12.999683 -2.09637353,12.999683 C-2.34302451,12.999683 -2.57714949,12.8910219 -2.73637353,12.7026488 C-3.08844893,12.2868317 -3.08844893,11.677466 -2.73637353,11.2616488 L4.20762647,3.42764883 Z" id="返回" transform="translate(4.999626, 8.000057) rotate(-90.000000) translate(-4.999626, -8.000057) "></path>
            </g>
        </g>
    </g>
</svg>