<svg xmlns="http://www.w3.org/2000/svg" width="40" height="40" viewBox="0 0 40 40">
  <defs>
    <style>
      .cls-1 {
        fill: none;
      }

      .cls-2 {
        fill: #196ea6;
      }
    </style>
  </defs>
  <g id="清算_icon_hover" transform="translate(100.001 15)">
    <rect id="矩形_6" data-name="矩形 6" class="cls-1" width="40" height="40" transform="translate(-100.001 -15)"/>
    <path id="减去_10" data-name="减去 10" class="cls-2" d="M8651.93,23191a9.806,9.806,0,0,1-7-2.9,10.039,10.039,0,0,1-1.854-2.568l1.112-1.926a8.565,8.565,0,0,0,2.028,3.248,8,8,0,0,0,5.7,2.35,8.411,8.411,0,0,0,2.021-.248l.919,1.611A10.186,10.186,0,0,1,8651.93,23191Zm8.194-1.74h0l-3.589-.07.442-3.6.983,1.158a7.974,7.974,0,0,0,2.286-6.2l1.355-2.348a10.081,10.081,0,0,1-2.529,9.924l1.052,1.139Zm-17.784-5.654v0a10.076,10.076,0,0,1,2.589-9.709l-1.054-1.141,3.591.063-.442,3.609-.983-1.164a7.9,7.9,0,0,0-2.3,5.924l-1.4,2.418Zm17.4-5.393v0a8.428,8.428,0,0,0-1.957-3.055,8,8,0,0,0-5.7-2.354,8.312,8.312,0,0,0-2.295.322l-1.047-1.564a10.07,10.07,0,0,1,3.313-.561,9.856,9.856,0,0,1,7.018,2.906,10.05,10.05,0,0,1,1.77,2.4l-1.1,1.9Z" transform="translate(-8732 -23176)"/>
  </g>
</svg>
