<svg xmlns="http://www.w3.org/2000/svg" width="40" height="40" viewBox="0 0 40 40">
  <defs>
    <style>
      .cls-1 {
        fill: none;
      }
    </style>
  </defs>
  <g id="铸币_icon_black" transform="translate(-436 -165)">
    <rect id="矩形_7" data-name="矩形 7" class="cls-1" width="40" height="40" transform="translate(436 165)"/>
    <path id="铸币_icon" d="M11.667,18.444l2.056,1.84V32.5l-2.056-1.84Zm2.056.417a7.128,7.128,0,0,1,11.21-6.352L26.4,11.042a9.358,9.358,0,0,0-9.931-.789,9.168,9.168,0,0,0-4.72,6.824Zm.892,6.194a9.188,9.188,0,0,0,5.127,2.387,9.286,9.286,0,0,0,6.732-1.893l-1.465-1.461a6.809,6.809,0,0,1-5.23,1.263,7.521,7.521,0,0,1-5.164-3.55v3.254ZM25.633,13.073a7.631,7.631,0,0,1,2.311,5.251A7.475,7.475,0,0,1,25.7,23.512l1.45,1.45A8.924,8.924,0,0,0,30,18.324a9.075,9.075,0,0,0-2.917-6.7Z" transform="translate(435.333 163.834)"/>
  </g>
</svg>
