<svg width="66" height="66" viewBox="0 0 66 66" fill="none" xmlns="http://www.w3.org/2000/svg">
  <path d="M33 66C51.2254 66 66 51.2254 66 33C66 14.7746 51.2254 0 33 0C14.7746 0 0 14.7746 0 33C0 51.2254 14.7746 66 33 66Z" fill="#0047BB"/>
  <path d="M31.005 14.2141H27.8463V51.7859H31.005V14.2141Z" fill="white"/>
  <path d="M24.8123 23.971V20.8123H19.6586V23.971H24.8123Z" fill="white"/>
  <path d="M24.8654 45.2218V42.0631H19.7117V45.2218H24.8654Z" fill="white"/>
  <path d="M35.1304 17.6888H38.2891V14.1144H35.1304V17.6888Z" fill="white"/>
  <path d="M35.1304 51.8122H38.2891V48.2379H35.1304V51.8122Z" fill="white"/>
  <path d="M34.0806 20.7809V23.9395H39.3173C39.3173 23.9395 43.141 23.6902 43.141 27.5139C43.141 31.4207 39.3173 31.4207 39.3173 31.4207H34.0806V34.5793H39.3173C39.3173 34.5793 46.2997 34.2469 46.2997 27.5139C46.2997 20.7809 39.4005 20.7809 39.4005 20.7809H34.0806Z" fill="white"/>
  <path d="M34.0806 31.4207V34.5793H39.3173C39.3173 34.5793 43.141 34.4131 43.141 38.1537C43.141 41.8942 39.3173 42.0605 39.3173 42.0605H34.0806V45.2191H39.3173C39.3173 45.2191 46.2997 44.8867 46.2997 38.1537C46.2997 31.4207 39.3173 31.4207 39.3173 31.4207H34.0806Z" fill="white"/>
</svg>
