<svg xmlns="http://www.w3.org/2000/svg" width="40" height="40" viewBox="0 0 40 40">
  <defs>
    <style>
      .cls-1 {
        fill: none;
      }

      .cls-2 {
        fill: #196ea6;
      }
    </style>
  </defs>
  <g id="保险池_icon_hover" transform="translate(43.167 15.833)">
    <rect id="矩形_4" data-name="矩形 4" class="cls-1" width="40" height="40" transform="translate(-43.167 -15.833)"/>
    <path id="路径_1" data-name="路径 1" class="cls-2" d="M12.5,18.041c0-.047,0-.093,0-.14V14.364l7.5-3.4,7.5,3.4v.014l1.667-1.124v-.01L20,9.167l-9.167,4.078v3.67Z" transform="translate(-43 -16)"/>
    <path id="路径_2" data-name="路径 2" class="cls-2" d="M27.5,15.678V17.9a13.484,13.484,0,0,1-.9,4.954l1.384.933A14.764,14.764,0,0,0,29.167,17.9V14.554Z" transform="translate(-43 -16)"/>
    <path id="路径_3" data-name="路径 3" class="cls-2" d="M26.149,23.853A10.405,10.405,0,0,1,20,29.087c-4.508-1.5-6.972-5.249-7.419-9.7l-1.737-1.171C10.962,24.2,14.339,29.183,20,30.833a12.272,12.272,0,0,0,7.507-6.064Z" transform="translate(-43 -16)"/>
  </g>
</svg>
