<svg xmlns="http://www.w3.org/2000/svg" width="40" height="40" viewBox="0 0 40 40">
  <defs>
    <style>
      .cls-1 {
        fill: none;
      }

      .cls-2 {
        fill: #196ea6;
      }
    </style>
  </defs>
  <g id="兑换_icon_hover" transform="translate(71.333 15.833)">
    <rect id="矩形_5" data-name="矩形 5" class="cls-1" width="40" height="40" transform="translate(-71.333 -15.833)"/>
    <path id="路径_4" data-name="路径 4" class="cls-2" d="M23.333,24.167,21.667,22.5V11.872l1.667,1.667Z" transform="translate(-71 -16)"/>
    <path id="路径_5" data-name="路径 5" class="cls-2" d="M21.667,10v.345l6.667,6.667V14.657L23.089,9.413A.833.833,0,0,0,21.667,10Z" transform="translate(-71 -16)"/>
    <path id="路径_6" data-name="路径 6" class="cls-2" d="M16.667,15.833,18.333,17.5V28.128l-1.667-1.667Z" transform="translate(-71 -16)"/>
    <path id="路径_7" data-name="路径 7" class="cls-2" d="M18.333,30v-.345l-6.667-6.667v2.357l5.244,5.244A.833.833,0,0,0,18.333,30Z" transform="translate(-71 -16)"/>
  </g>
</svg>
