<svg width="66" height="66" viewBox="0 0 66 66" fill="none" xmlns="http://www.w3.org/2000/svg">
    <path d="M33 66C39.5268 66 45.907 64.0646 51.3338 60.4385C56.7606 56.8124 60.9903 51.6585 63.488 45.6286C65.9857 39.5986 66.6392 32.9634 65.3659 26.562C64.0926 20.1607 60.9496 14.2806 56.3345 9.66549C51.7194 5.05036 45.8394 1.90741 39.438 0.634101C33.0366 -0.639212 26.4014 0.0142984 20.3714 2.51199C14.3415 5.00968 9.18759 9.23938 5.5615 14.6662C1.93542 20.093 0 26.4732 0 33C0 41.7522 3.47677 50.1458 9.66547 56.3345C15.8542 62.5232 24.2479 66 33 66Z" fill="#C0E79B"/>
    <path d="M36.6521 27.5853V23.1852H46.7501V16.5H19.2748V23.1907H29.3646V27.5907C21.1668 27.9648 15.0013 29.5817 15.0013 31.515C15.0013 33.4482 21.1696 35.0625 29.3646 35.442V49.5H36.6603V35.4393C44.8471 35.0625 50.9988 33.4482 50.9988 31.5122C50.9988 29.5762 44.8416 27.962 36.6521 27.5853ZM36.6521 34.2512C36.4458 34.2512 35.3898 34.3255 33.0358 34.3255C31.1521 34.3255 29.8321 34.2787 29.3618 34.2512C22.1238 33.9295 16.7118 32.6755 16.7118 31.1768C16.7118 29.678 22.1156 28.4267 29.3618 28.1022V33C29.8403 33.033 31.1906 33.1155 33.0688 33.1155C35.3183 33.1155 36.4458 33.0247 36.6603 33V28.094C43.8928 28.413 49.2856 29.667 49.2856 31.1685C49.2856 32.67 43.8846 33.9212 36.6631 34.2512H36.6521Z" fill="#26A17B"/>
</svg>
