<svg width="80" height="49" viewBox="0 0 80 49" fill="none" xmlns="http://www.w3.org/2000/svg">
    <path d="M16.3777 9.57371C29.4239 -3.19128 50.5761 -3.19128 63.6224 9.57371L65.1926 11.11C65.8449 11.7483 65.8449 12.7831 65.1926 13.4213L59.8214 18.6766C59.4953 18.9958 58.9665 18.9958 58.6403 18.6766L56.4796 16.5625C47.3782 7.65735 32.6219 7.65735 23.5205 16.5625L21.2065 18.8266C20.8804 19.1457 20.3516 19.1457 20.0254 18.8266L14.6543 13.5712C14.002 12.933 14.002 11.8982 14.6543 11.2599L16.3777 9.57371ZM74.7304 20.4423L79.5108 25.1196C80.1631 25.7578 80.1631 26.7926 79.5108 27.4309L57.956 48.5213C57.3037 49.1595 56.246 49.1595 55.5937 48.5213C55.5937 48.5213 55.5937 48.5213 55.5937 48.5213L40.2954 33.5528C40.1323 33.3932 39.8679 33.3932 39.7049 33.5528C39.7049 33.5528 39.7049 33.5528 39.7049 33.5528L24.4069 48.5213C23.7546 49.1595 22.697 49.1595 22.0447 48.5213C22.0447 48.5213 22.0446 48.5213 22.0446 48.5213L0.489235 27.4306C-0.163078 26.7924 -0.163078 25.7575 0.489235 25.1193L5.26957 20.442C5.92188 19.8038 6.97949 19.8038 7.63181 20.442L22.9303 35.4107C23.0934 35.5703 23.3578 35.5703 23.5209 35.4107C23.5209 35.4107 23.5209 35.4107 23.5209 35.4107L38.8186 20.442C39.4709 19.8038 40.5285 19.8037 41.1809 20.442C41.1809 20.442 41.1809 20.442 41.1809 20.442L56.4794 35.4107C56.6425 35.5703 56.9069 35.5703 57.07 35.4107L72.3682 20.4423C73.0205 19.804 74.0781 19.804 74.7304 20.4423Z" fill="#3B99FC"/>
</svg>
