<svg xmlns="http://www.w3.org/2000/svg" width="41" height="41" viewBox="0 0 41 41">
  <defs>
    <style>
      .cls-1 {
        fill: none;
        stroke: #eee;
      }

      .cls-2 {
        fill: #3b99fc;
      }
    </style>
  </defs>
  <g id="walletconnect" transform="translate(0.5 0.5)">
    <path id="路径_66" data-name="路径 66" class="cls-1" d="M20,40A20,20,0,1,0,0,20,20,20,0,0,0,20,40Z"/>
    <path id="WalletConnect-2" data-name="WalletConnect" class="cls-2" d="M5.77,3.857a11.477,11.477,0,0,1,16.536,0l.55.564a.612.612,0,0,1,0,.849L20.975,7.2a.287.287,0,0,1-.413,0l-.756-.777a8.007,8.007,0,0,0-11.536,0l-.81.832a.287.287,0,0,1-.413,0L5.167,5.326a.612.612,0,0,1,0-.849ZM26.193,7.85l1.673,1.718a.612.612,0,0,1,0,.849l-7.544,7.747a.574.574,0,0,1-.827,0h0l-5.354-5.5a.143.143,0,0,0-.207,0h0l-5.354,5.5a.574.574,0,0,1-.827,0h0L.209,10.417a.612.612,0,0,1,0-.849L1.882,7.849a.574.574,0,0,1,.827,0l5.354,5.5a.143.143,0,0,0,.207,0h0l5.354-5.5a.574.574,0,0,1,.827,0h0l5.354,5.5a.143.143,0,0,0,.207,0l5.354-5.5A.574.574,0,0,1,26.193,7.85Z" transform="translate(5.962 10.66)"/>
  </g>
</svg>
